# xmcd
#
# Track frame offsets:
#	150
#	20905
#	44590
#	67465
#	88142
#	102942
#	125430
#	148770
#	167780
#	183862
#
# Disc length: 2729 seconds
#
# Revision: 589814
# Processed by: cddbd v1.5.2PL0 Copyright (c) Steve Scherf et al.
# Submitted via: EZCDAudioConverter 8.0.2.1
#
DISCID=990aa70a
DTITLE=张学友 - 祝福
DYEAR=1993
DGENRE=World Pop
TTITLE0=祝福
TTITLE1=回头太难
TTITLE2=谁想轻轻偷走我的吻
TTITLE3=最后一封信
TTITLE4=明日约定（unplugged）
TTITLE5=好久
TTITLE6=情到深处
TTITLE7=苦恋
TTITLE8=爱情的赌徒
TTITLE9=对你的爱越深 就越来越心痛
EXTD=
EXTT0=
EXTT1=
EXTT2=
EXTT3=
EXTT4=
EXTT5=
EXTT6=
EXTT7=
EXTT8=
EXTT9=
PLAYORDER=
